<svg width="234" height="24" viewBox="0 0 234 24" fill="none" xmlns="http://www.w3.org/2000/svg">
<path d="M7.7998 0.75052H15.2193L9.88908 17.062H22.317L20.3347 23.2489H0.487305L7.7998 0.749756V0.75052Z" fill="#0A0A0A"/>
<path d="M30.6948 0.750488H38.1142L30.856 23.2496H23.4365L30.6948 0.750488Z" fill="#0A0A0A"/>
<path d="M44.4028 13.5803C44.4028 16.2588 46.3316 17.5977 48.7686 17.5977C50.0004 17.5977 53.0006 17.3302 54.4465 14.544H49.036L50.2679 10.7941H62.9633L58.946 23.2488H55.1426L55.8923 20.5168C53.9635 22.6061 50.8571 23.9985 47.1072 23.9985C40.7859 23.9985 37.0093 20.6773 37.0093 14.7847C37.0093 6.93651 43.7318 0 53.1603 0C59.6422 0 63.7672 3.96383 63.2048 8.73158H55.7586C55.1961 7.31172 53.696 6.40158 51.7412 6.40158C47.3487 6.40158 44.402 10.0177 44.402 13.5796L44.4028 13.5803Z" fill="#0A0A0A"/>
<path d="M92.6628 0.750488L85.4313 23.2496H78.0118L80.5566 15.3755H71.932L69.3872 23.2496H61.9678L69.1993 0.750488H76.6187L73.8868 9.2146H82.5114L85.2433 0.750488H92.6628Z" fill="#0A0A0A"/>
<path d="M117.165 6.93806H109.236L103.906 23.2496H96.4866L101.817 6.93806H93.7012L95.6835 0.751221H119.173L117.164 6.93806H117.165Z" fill="#0A0A0A"/>
<path d="M116.489 15.8033H122.784C122.409 17.5977 124.337 18.3213 126.828 18.3213C129.318 18.3213 131.783 17.7054 131.783 16.1518C131.783 15.4556 131.408 14.732 129.185 14.411L127.39 14.116C125.114 13.7943 119.435 13.0714 119.435 8.38387C119.435 3.02694 124.524 0 131.729 0C138.935 0 142.952 2.91919 140.568 8.14239H134.488C134.702 6.99077 133.765 5.6779 130.685 5.6779C128.14 5.6779 126.506 6.53531 126.506 7.84742C126.506 8.4901 126.908 9.13278 128.649 9.42775L129.961 9.66924C133.229 10.3119 139.041 10.6604 139.041 15.4816C139.041 21.8832 132.828 23.9992 125.783 23.9992C118.739 23.9992 114.346 21.91 116.489 15.8033Z" fill="#0A0A0A"/>
<path d="M150.789 14.7319C150.789 6.96475 157.619 0.000732422 166.725 0.000732422C173.314 0.000732422 177.09 3.50987 177.09 9.26801C177.09 17.0352 170.26 23.9992 161.154 23.9992C154.565 23.9992 150.789 20.4908 150.789 14.7319ZM169.698 10.4464C169.698 7.74116 167.797 6.40231 165.52 6.40231C161.127 6.40231 158.235 10.2057 158.181 13.5536C158.181 16.2588 160.083 17.5976 162.359 17.5976C166.752 17.5976 169.644 13.7943 169.698 10.4464Z" fill="#0A0A0A"/>
<path d="M179.228 13.1249L183.3 0.750488H190.826L186.541 13.6874C185.656 16.2589 186.541 17.8392 189.486 17.8392C192.432 17.8392 194.147 16.2856 195.245 12.9377L199.209 0.751252H206.736L202.477 13.8219C200.039 21.2681 195.915 24.0001 188.442 24.0001C180.192 24.0001 176.898 20.2235 179.228 13.1257V13.1249Z" fill="#0A0A0A"/>
<path d="M231.183 6.93806H223.255L217.925 23.2496H210.505L215.835 6.93806H207.72L209.702 0.751221H233.192L231.183 6.93806H231.183Z" fill="#0A0A0A"/>
</svg>
