<svg width="22" height="24" viewBox="0 0 22 24" fill="none" xmlns="http://www.w3.org/2000/svg">
<path d="M13.5015 23.2513H1.08118C0.651713 23.2513 0.346044 22.8295 0.475191 22.4161L7.22064 1.44301C7.36048 1.00055 7.76857 0.699463 8.22861 0.699463H20.9011C21.3787 0.699463 21.718 1.16867 21.5728 1.62795L14.5133 22.5024C14.3734 22.948 13.9638 23.2506 13.5007 23.2506L13.5015 23.2513Z" fill="#0A0A0A"/>
<path d="M13.0199 21.9361H2.46492C2.09888 21.9361 1.83829 21.5769 1.9491 21.2246L7.84786 2.46234C7.96707 2.08483 8.31401 1.82959 8.7068 1.82959H19.5277C19.9342 1.82959 20.2231 2.22926 20.0993 2.62052L13.8826 21.2987C13.7634 21.6785 13.4149 21.9361 13.0206 21.9361H13.0199Z" fill="#0A0A0A" stroke="white" stroke-width="0.189944" stroke-miterlimit="10"/>
<path d="M13.1936 4.50732H11.7737C11.4046 4.50732 11.05 4.65405 10.7887 4.9154L9.78453 5.91954C9.52318 6.18089 9.37646 6.53471 9.37646 6.90457V8.32443C9.37646 8.69353 9.52318 9.04811 9.78453 9.30946L10.7887 10.3136C11.05 10.575 11.4038 10.7217 11.7737 10.7217H13.1936C13.5627 10.7217 13.9172 10.575 14.1786 10.3136L15.1827 9.30946C15.4441 9.04811 15.5908 8.69429 15.5908 8.32443V6.90457C15.5908 6.53547 15.4441 6.18089 15.1827 5.91954L14.1786 4.9154C13.9172 4.65405 13.5634 4.50732 13.1936 4.50732Z" fill="#2D2D2D"/>
<path d="M10.2674 12.8333H8.84758C8.47848 12.8333 8.1239 12.98 7.86255 13.2413L7.03111 14.2455C6.76976 14.5068 6.62305 14.8606 6.62305 15.2305V16.6504C6.62305 17.0195 6.76976 17.374 7.03111 17.6354L7.86255 18.6395C8.1239 18.9009 8.47771 19.0476 8.84758 19.0476H10.2674C10.6365 19.0476 10.9911 18.9009 11.2525 18.6395L12.2566 17.6354C12.518 17.374 12.6647 17.0202 12.6647 16.6504V15.2305C12.6647 14.8614 12.518 14.5068 12.2566 14.2455L11.2525 13.2413C10.9911 12.98 10.6373 12.8333 10.2674 12.8333Z" fill="#2D2D2D"/>
<path d="M8.78564 5.87L10.6823 4.13071C10.8757 3.93737 11.1378 3.82886 11.4114 3.82886H13.6978C13.9714 3.82886 14.2335 3.93737 14.4268 4.13071L16.1661 5.87" stroke="#232323" stroke-width="0.379889" stroke-miterlimit="10" stroke-linecap="round"/>
<path d="M6.00342 14.1844L7.72742 12.4452C7.92076 12.2518 8.18288 12.1433 8.45646 12.1433H10.7429C11.0165 12.1433 11.2786 12.2518 11.4719 12.4452L13.2112 14.1844" stroke="#232323" stroke-width="0.379889" stroke-miterlimit="10" stroke-linecap="round"/>
</svg>
