<svg width="22" height="24" viewBox="0 0 22 24" fill="none" xmlns="http://www.w3.org/2000/svg">
<path d="M13.2289 23.2987H0.635878C0.206406 23.2987 -0.0992689 22.8769 0.0298784 22.4634L6.94805 1.49038C7.08789 1.04792 7.49597 0.746826 7.95601 0.746826H20.4558C20.9334 0.746826 21.2727 1.21604 21.1275 1.67531L14.2407 22.5498C14.1008 22.9953 13.6912 23.2979 13.2281 23.2979L13.2289 23.2987Z" fill="#0A0A0A"/>
<path d="M12.7475 21.9837H2.02059C1.65454 21.9837 1.39395 21.6245 1.50476 21.2722L7.57621 2.50994C7.69543 2.13244 8.04237 1.8772 8.43516 1.8772H19.0833C19.4899 1.8772 19.7787 2.27687 19.6549 2.66813L13.6102 21.3463C13.491 21.7261 13.1425 21.9837 12.7482 21.9837H12.7475Z" fill="#0A0A0A" stroke="white" stroke-width="0.189944" stroke-miterlimit="10"/>
<path d="M12.9216 4.55566H11.5017C11.1326 4.55566 10.7781 4.70239 10.5167 4.96374L9.51257 5.96788C9.25122 6.22923 9.10449 6.58305 9.10449 6.95291V8.37277C9.10449 8.74187 9.25122 9.09645 9.51257 9.3578L10.5167 10.3619C10.7781 10.6233 11.1319 10.77 11.5017 10.77H12.9216C13.2907 10.77 13.6453 10.6233 13.9066 10.3619L14.9108 9.3578C15.1721 9.09645 15.3188 8.74263 15.3188 8.37277V6.95291C15.3188 6.58381 15.1721 6.22923 14.9108 5.96788L13.9066 4.96374C13.6453 4.70239 13.2915 4.55566 12.9216 4.55566Z" fill="#DB1616"/>
<path d="M9.99484 12.8806H8.57498C8.20588 12.8806 7.8513 13.0273 7.58995 13.2887L6.58581 14.2928C6.32446 14.5542 6.17773 14.908 6.17773 15.2779V16.6977C6.17773 17.0668 6.32446 17.4214 6.58581 17.6828L7.58995 18.6869C7.8513 18.9482 8.20512 19.095 8.57498 19.095H9.99484C10.3639 19.095 10.7185 18.9482 10.9799 18.6869L11.984 17.6828C12.2454 17.4214 12.3921 17.0676 12.3921 16.6977V15.2779C12.3921 14.9088 12.2454 14.5542 11.984 14.2928L10.9799 13.2887C10.7185 13.0273 10.3647 12.8806 9.99484 12.8806Z" fill="#DB1616"/>
<path d="M8.51318 5.91736L10.4099 4.17807C10.6032 3.98473 10.8653 3.87622 11.1389 3.87622H13.4254C13.6989 3.87622 13.9611 3.98473 14.1544 4.17807L15.8937 5.91736" stroke="#232323" stroke-width="0.379889" stroke-miterlimit="10" stroke-linecap="round"/>
<path d="M5.55811 14.2318L7.45481 12.4925C7.64815 12.2992 7.91027 12.1907 8.18384 12.1907H10.4703C10.7439 12.1907 11.006 12.2992 11.1993 12.4925L12.9386 14.2318" stroke="#232323" stroke-width="0.379889" stroke-miterlimit="10" stroke-linecap="round"/>
</svg>
